# xmcd
#
# Track frame offsets:
#	150
#	18033
#	33486
#	49773
#	65690
#	82966
#	97543
#	112038
#	127713
#	144849
#	158088
#	172631
#	189873
#	204268
#	215847
#	231322
#	250592
#	267843
#	284704
#	300209
#	312091
#	324241
#	339784
#
# Disc length: 4742 seconds
#
# Revision: 1
# Processed by: cddbd v1.5.2PL0 Copyright (c) Steve Scherf et al.
# Submitted via: audiograbber 1.83.01
#
DISCID=1d128417
DTITLE=Various Artist - CDX Volume 612 (February 16, 2015)
DYEAR=2015
DGENRE=Country
TTITLE0=Logan Mize - Can't Get Away From A Good Time [edit]
TTITLE1=Brad Paisley - Crushin' It
TTITLE2=Gary Allan - Hangover Tonight 
TTITLE3=Ashley Monroe - On To Something Good 
TTITLE4=Carrie Underwood - Something In The Water [Acoustic Version]
TTITLE5=Kenny Chesney (with Grace Potter) - Wild Child 
TTITLE6=Montgomery Gentry - Folks Like Us
TTITLE7=Blackberry Smoke - Living In The Song 
TTITLE8=Macy Martin - Back To Reality 
TTITLE9=Sarah Dunn Band - Bye Bye
TTITLE10=Claire Petrie - C'est La Vie (You Never Can Tell)
TTITLE11=Mindy Miller - Coming Down On Me
TTITLE12=Sammy Hakim - Empty Bottle
TTITLE13=Freddy Hart - God Is Easy Lovin' 
TTITLE14=Jordyn Stoddard - Like Me 'Till You Love Me
TTITLE15=Donovan Lee - Marriage
TTITLE16=Barry Michael - On My Island
TTITLE17=Casey Weston - Play It All Again
TTITLE18=Vic Harris Band - Rowdy Cowboy
TTITLE19=Lorraine Jordan and Carolina Road (with the Kentucky Headhunters) - Ru
TTITLE19=nning Water
TTITLE20=Jon Wolfe - Smile On Mine
TTITLE21=Wade Bowen - When I Woke Up Today
TTITLE22=Hannah Bethel - You Wanna Be My Man 
EXTD=
EXTT0=
EXTT1=
EXTT2=
EXTT3=
EXTT4=
EXTT5=
EXTT6=
EXTT7=
EXTT8=
EXTT9=
EXTT10=
EXTT11=
EXTT12=
EXTT13=
EXTT14=
EXTT15=
EXTT16=
EXTT17=
EXTT18=
EXTT19=
EXTT20=
EXTT21=
EXTT22=
PLAYORDER=
